HIERARCHY
ROOT Hips
{
    OFFSET 13.527122497558594 94.35400772094727 -18.324386596679688
    CHANNELS 6 Xposition Yposition Zposition Zrotation Xrotation Yrotation
    JOINT RightUpLeg
    {
        OFFSET -13.527122497558594 0.0 0.0
        CHANNELS 3 Zrotation Xrotation Yrotation
        JOINT RightLeg
        {
            OFFSET 0.0 -48.54304504394531 0.0
            CHANNELS 3 Zrotation Xrotation Yrotation
            JOINT RightFoot
            {
                OFFSET 0.0 -45.81096267700195 0.0
                CHANNELS 3 Zrotation Xrotation Yrotation
                End Site
                {
                    OFFSET 0.0 0.0 18.324386596679688
                }
            }
        }
    }
    JOINT LeftUpLeg
    {
        OFFSET 13.527122497558594 0.0 0.0
        CHANNELS 3 Zrotation Xrotation Yrotation
        JOINT LeftLeg
        {
            OFFSET 0.0 -48.54304504394531 0.0
            CHANNELS 3 Zrotation Xrotation Yrotation
            JOINT LeftFoot
            {
                OFFSET 0.0 -45.81096267700195 0.0
                CHANNELS 3 Zrotation Xrotation Yrotation
                End Site
                {
                    OFFSET 0.0 0.0 18.324386596679688
                }
            }
        }
    }
    JOINT Spine
    {
        OFFSET 0.0 25.700157165527344 0.0
        CHANNELS 3 Zrotation Xrotation Yrotation
        JOINT Spine3
        {
            OFFSET 0.0 26.027023315429688 0.0
            CHANNELS 3 Zrotation Xrotation Yrotation
            JOINT Neck
            {
                OFFSET 0.0 11.232364654541016 0.0
                CHANNELS 3 Zrotation Xrotation Yrotation
                End Site
                {
                    OFFSET 0.0 4.492945671081543 0.0
                }
            }
            JOINT LeftArm
            {
                OFFSET 14.117902755737305 0.0 0.0
                CHANNELS 3 Zrotation Xrotation Yrotation
                JOINT LeftForeArm
                {
                    OFFSET 27.8414306640625 0.0 0.0
                    CHANNELS 3 Zrotation Xrotation Yrotation
                    JOINT LeftHand
                    {
                        OFFSET 25.007091522216797 0.0 0.0
                        CHANNELS 3 Zrotation Xrotation Yrotation
                        End Site
                        {
                            OFFSET 10.002836227416992 0.0 0.0
                        }
                    }
                }
            }
            JOINT RightArm
            {
                OFFSET -14.117902755737305 0.0 0.0
                CHANNELS 3 Zrotation Xrotation Yrotation
                JOINT RightForeArm
                {
                    OFFSET -27.8414306640625 0.0 0.0
                    CHANNELS 3 Zrotation Xrotation Yrotation
                    JOINT RightHand
                    {
                        OFFSET -25.007091522216797 0.0 0.0
                        CHANNELS 3 Zrotation Xrotation Yrotation
                        End Site
                        {
                            OFFSET -10.002836227416992 0.0 0.0
                        }
                    }
                }
            }
        }
    }
}
MOTION
Frames: 8
Frame Time: 0.03333333333333333
0.00019009207608178258 93.82750701904297 -0.0006230719154700637 5.42262512393217 -14.648308871419504 -3.717392905649462 2.7833100235855057 19.235897978176368 -2.568454019101858 -5.136413371537053 9.102423701078662 -0.3439483768983016 0.0 0.0 -9.93923337957349e-16 0.5129057268603616 13.240731974518502 -1.2614619381738736 0.1297362460014539 11.297751159838592 -1.0781984090818324 1.5902773407317584e-15 4.969616689786745e-17 9.93923337957349e-17 6.030850259919734 20.47556732048449 -3.89251960363303 5.582919179450046e-07 -4.312032706245758e-07 1.5177721859418436 -14.294857369016325 13.687214395078 -178.1735078408468 112.86055979612354 60.25224119521149 -106.705598468034 6.409828666007991e-07 -1.8467430138377375e-06 68.25747612994812 6.3611093629270335e-15 -3.1805546814635168e-15 1.7655625192200634e-31 -115.55562155857037 -26.52828915694901 174.50305743540622 7.740828551014476e-07 1.2673166009019277e-06 -28.110095218955436 8.647133040228937e-15 3.1805546814635168e-15 -2.400061549564774e-31
0.0001663461298448965 93.82746887207031 -0.0006195230525918305 5.583869822652274 -14.643422704371163 -3.339303790582938 2.707369754818006 19.385609073289743 -2.592190577634576 -4.989845960957186 8.822133045148497 -0.35688316504025963 -4.310455369189608e-35 2.484808344893373e-17 1.9878466759146985e-16 0.517674718132116 13.502716379827158 -1.308176818374627 0.08328426454423914 11.056350323430385 -1.0630251151265047 -1.5902773407317584e-15 -1.5405811738338909e-15 -2.1379858631180455e-32 5.8779399195947795 20.38394651186852 -3.853037796010574 8.854133150044011e-07 -3.838421149994161e-07 1.522956496733159 -14.06309780047381 14.013570379747131 -178.1753119809346 113.85024963208136 59.59072970534267 -107.99660123351308 1.268538561704615e-07 8.932680141977118e-08 69.31254573817156 -6.3611093629270335e-15 -3.1805546814635168e-15 6.3611093629270335e-15 -115.03459559643768 -24.49109916800885 174.8251564799089 3.627104505048121e-06 -3.976211684383905e-06 -27.585512268587692 1.590277340731758e-15 0.0 0.0
0.00014714837016072124 93.82746887207031 -0.0006373939104378223 5.444555528055989 -14.659747704674052 -3.344763620343544 2.9140555864948148 19.62173739573328 -2.675683122283897 -4.728495400521836 8.467055565279894 -0.4012557296647205 -7.951386703658791e-16 -2.484808344893372e-17 -1.9878466759146977e-16 0.7390616548293555 13.667298277812723 -1.3646544877133706 0.5223437069984532 10.648577786569694 -1.1365199182419743 0.0 -4.969616689786745e-17 0.0 5.938685282389596 20.287954925107364 -3.8393578896008314 -3.238382950786857e-07 -2.645839868581694e-07 1.466909214924407 -14.210604209871734 13.478295144112915 -177.56842485471242 114.33637923373576 59.09467446243468 -108.63636126244249 1.7277813060501305e-06 6.771116985981483e-06 70.41617093417604 0.0 0.0 0.0 -114.88887942086349 -23.697603270513625 175.21036302270383 -2.3577224185525812e-07 -1.7302056258620612e-06 -27.143758058782286 9.342879376799079e-15 3.1805546814635164e-15 3.1805546814635156e-15
0.00010357171413488686 93.82746124267578 -0.0006407463224604726 5.356667992535774 -14.458404288444852 -3.6704223304734733 3.141540507097946 19.308859575085418 -2.7116051708975335 -4.866417717796542 8.579703396020225 -0.420319706921078 0.0 0.0 2.9817700138720465e-16 0.8408385081803939 13.466107989413189 -1.3691617821762556 0.2566238238052868 10.44975520198546 -1.0860264356311788 -1.3793457181406746e-33 -1.5902773407317584e-15 -9.93923337957349e-17 5.928454126275584 19.994451217019652 -3.783024642270034 -4.5448099742049844e-08 4.0997762863108713e-07 1.1043946773049589 -14.657867388577289 13.946085275450079 -177.36741354539743 114.67821045582399 58.51091673981578 -108.67955720541998 -3.742526791431425e-06 -3.44572436858e-06 68.80948894233931 0.0 -6.3611093629270335e-15 0.0 -114.86681381169846 -23.274243781754528 175.4659427129933 -2.762056602840072e-06 2.6679150831098644e-07 -27.274601769186795 5.4541543170409525e-15 0.0 0.0
0.00011421307135606185 93.8274154663086 -0.0006400328711606562 5.019668613175497 -14.361405210890643 -4.07397177273577 3.3836093086362777 19.282863893403697 -2.701824346376471 -4.825647867385945 8.291876729718982 -0.40989654604502446 6.788967206473633e-33 1.5654292572828242e-15 -4.969616689786744e-16 0.9994747800670233 13.300954409979408 -1.3290486891268432 0.51860798448069 10.450087352943562 -1.1166079909914335 -4.267350815497712e-33 1.6399735076296259e-15 2.981770013872047e-16 6.100214382478418 19.759047839561664 -3.7094006481900843 -7.692558800068485e-07 -2.3889958034852125e-07 1.0645655221360235 -14.83875227527297 14.053003833989772 -177.53701239457533 114.5921018884972 58.55926901280421 -108.93675935474684 4.361341383483661e-06 -4.3119172842799077e-07 68.3173039160606 -6.3611093629270335e-15 0.0 0.0 -115.33382713545804 -23.25668027243473 175.5542916464975 -7.461634472723149e-07 -1.6098368133705139e-06 -26.897645576279263 -2.2611755938529684e-15 0.0 0.0
0.00011353517766110599 93.82745361328125 -0.0006256024935282767 4.989947222352722 -14.44682696540135 -4.185051008351534 3.757809046096328 19.121774608142424 -2.7232806838440697 -5.516173700852054 8.658884615925153 -0.3432369440315371 0.0 0.0 1.9878466759146985e-16 0.973111664570715 13.120888666409291 -1.2490305825256287 0.30271397536987155 10.837872268565349 -1.0670954034588962 -1.5902773407317584e-15 -4.969616689786745e-17 -9.93923337957349e-17 6.102929629378873 20.044818054950305 -3.674967722782903 1.216880673833058e-06 4.0815374046647595e-07 1.2810613557635957 -14.924005036487562 14.203090235344948 -177.18738161813437 115.21621897656892 58.199096937500606 -109.25444760264494 -4.341491838885511e-06 7.40773690260203e-07 66.92237511317815 -1.7655625192200634e-31 3.180554681463516e-15 6.361109362927032e-15 -115.66720161108525 -23.740093607382498 175.11411246220942 5.056814236541742e-06 2.0614424081750617e-07 -27.249134758288044 -1.3169484227934871e-15 0.0 0.0
0.00012926702038384974 93.82742309570312 -0.0005928563186898828 4.7887179678651295 -14.476907898147616 -4.51777211494287 3.648583546150097 19.368353888773402 -2.698924921892202 -5.073618853411864 8.07674276871239 -0.35809844511151173 -1.7241821476758432e-34 4.969616689786745e-17 3.975693351829396e-16 0.8551520797615252 13.062539581338877 -1.202112940779957 0.4606407641729402 11.013935595598042 -1.080866288352219 1.5902773407317582e-15 0.0 0.0 6.493456478316832 20.093729235032008 -3.799581801645657 -1.390682080906968e-06 5.084270045033411e-07 1.240668742474708 -15.213013779074293 14.153796743176319 -176.64838984269988 114.69387382544802 57.89621489241934 -108.81798489987514 -3.5719172618507047e-06 4.310159176647461e-06 66.62001975966088 -6.3611093629270335e-15 0.0 0.0 -116.05668654951403 -23.85889273481494 174.95745317198225 -5.230249135653711e-07 -5.550581649969339e-09 -27.175443385365483 1.7393658414253607e-16 4.827710013492361e-33 3.1805546814635168e-15
0.00014341672067530453 93.82743835449219 -0.0005951361963525414 4.639968544695098 -14.392956929195616 -4.449687397948951 3.9225476760665994 19.274601962130138 -2.707598117728594 -4.902305858576892 8.181513297318288 -0.3962906145697471 0.0 0.0 -9.93923337957349e-17 0.8828728913580955 12.807384580689734 -1.1381926373898725 0.7024837654520667 11.01993667850992 -1.0947306890711381 1.5902773407317584e-15 4.969616689786746e-17 4.969616689786745e-16 6.53437862599012 20.22303660142193 -3.762391269299829 -7.636981307403618e-07 2.769060030186902e-07 1.2195512125256658 -15.254506494575265 14.172542676453386 -176.38190421896078 113.41231873660628 57.72258437984761 -107.99720905453019 -9.392600732324738e-07 -6.893056580923382e-06 68.11132031463112 0.0 3.1805546814635168e-15 0.0 -116.52269328271542 -25.301983078367723 174.72431365172392 -2.0404015596290522e-06 -1.7553736271435157e-06 -27.70584381743427 1.987846675914698e-15 3.1805546814635168e-15 -3.1805546814635168e-15
